<svg width="500" height="500" viewBox="0 0 500 500" fill="none" xmlns="http://www.w3.org/2000/svg">
  <g>
    <path d="M340 130C340 130 420 210 420 340C420 340 380 440 260 440C260 440 140 440 100 340C100 340 100 210 180 130C180 130 260 50 340 130Z" fill="#2AFF62"/>
    <path d="M340 130C340 130 300 190 230 250C230 250 190 290 180 350C180 350 190 380 220 390C220 390 260 380 280 340C280 340 290 310 310 300C310 300 330 290 340 260C340 260 358 215 340 130Z" fill="#0B1624"/>
    <path d="M220 240C220 240 260 200 270 175C270 175 285 145 295 140C295 140 315 130 330 135C330 135 255 85 185 130C185 130 205 160 220 240Z" fill="#0B1624"/>
    <path d="M230 500C230 500 270 500 290 470C290 470 310 440 330 440" fill="#2AFF62"/>
  </g>
</svg> 