<?xml version="1.0" encoding="UTF-8"?>
<svg width="120" height="48" viewBox="0 0 120 48" fill="none" xmlns="http://www.w3.org/2000/svg">
  <filter id="glow" x="-50%" y="-50%" width="200%" height="200%">
    <feGaussianBlur stdDeviation="2" result="blur" />
    <feComposite in="SourceGraphic" in2="blur" operator="over" />
  </filter>
  <g filter="url(#glow)">
    <path d="M60 4C55.5817 4 52 7.58172 52 12V36C52 40.4183 55.5817 44 60 44C64.4183 44 68 40.4183 68 36V12C68 7.58172 64.4183 4 60 4Z" fill="#0B1624"/>
    <path d="M60 4C55.5817 4 52 7.58172 52 12V36C52 40.4183 55.5817 44 60 44C64.4183 44 68 40.4183 68 36V12C68 7.58172 64.4183 4 60 4Z" stroke="#2AFF62" stroke-width="1.5"/>
    <path d="M60 10L55 22H65L60 10Z" fill="#2AFF62"/>
    <path d="M60 38L65 26H55L60 38Z" fill="#2AFF62"/>
    <circle cx="60" cy="24" r="4" fill="#0B1624" stroke="#2AFF62" stroke-width="1.5"/>
  </g>
  <text x="80" y="22" font-family="sans-serif" font-size="12" fill="#2AFF62" filter="url(#glow)">EARLY</text>
  <text x="80" y="36" font-family="sans-serif" font-size="12" fill="#2AFF62" filter="url(#glow)">ACCESS</text>
</svg> 